<?xml version="1.0" standalone="no"?>
<!DOCTYPE svg PUBLIC "-//W3C//DTD SVG 20010904//EN"
 "http://www.w3.org/TR/2001/REC-SVG-20010904/DTD/svg10.dtd">
<svg version="1.0" xmlns="http://www.w3.org/2000/svg"
 width="16.000000pt" height="16.000000pt" viewBox="0 0 16.000000 16.000000"
 preserveAspectRatio="xMidYMid meet">
<metadata>
Created by potrace 1.11, written by Peter Selinger 2001-2013
</metadata>
<g transform="translate(0.000000,16.000000) scale(0.002286,-0.002286)"
fill="#000000" stroke="none">
<path d="M3706 4916 c-8 -23 -40 -122 -71 -221 -32 -99 -68 -211 -80 -250 -13
-38 -40 -119 -59 -180 -35 -113 -161 -504 -246 -770 -27 -82 -75 -231 -106
-329 -46 -143 -59 -175 -65 -155 -4 13 -37 125 -73 249 -69 237 -253 868 -337
1155 -28 94 -57 193 -64 220 -8 28 -32 109 -53 180 l-38 130 -332 1 c-204 0
-332 -4 -332 -9 0 -6 30 -103 66 -216 36 -113 83 -260 104 -326 21 -66 79
-248 130 -405 50 -157 109 -339 130 -405 21 -66 80 -248 130 -405 50 -157 127
-395 170 -530 43 -135 85 -265 93 -290 8 -25 29 -90 46 -145 18 -55 36 -111
42 -125 l9 -25 283 1 c332 2 307 1 307 16 0 6 102 320 226 697 124 377 266
809 316 959 49 151 92 272 94 270 2 -3 24 -67 49 -144 191 -580 407 -1244 512
-1569 63 -197 73 -225 82 -226 3 -1 135 -2 292 -3 l286 -1 31 95 c119 369 274
846 327 1010 96 293 192 590 237 730 22 69 58 177 78 240 35 105 152 468 155
480 1 3 4 12 8 20 8 21 97 298 97 303 0 2 -147 4 -327 3 l-327 -1 -68 -230
c-38 -126 -88 -297 -113 -380 -24 -82 -65 -220 -91 -305 -25 -85 -52 -175 -59
-200 -35 -121 -69 -234 -95 -320 -16 -52 -52 -174 -81 -270 -28 -96 -57 -192
-64 -214 l-12 -38 -16 48 c-67 209 -222 690 -237 734 -11 30 -54 163 -96 295
-42 132 -103 321 -135 420 -32 99 -79 245 -105 326 l-47 146 -278 0 -278 0
-15 -41z"/>
<path d="M910 4663 c0 -6 137 -422 622 -1893 88 -267 178 -539 200 -606 l40
-121 329 1 c266 0 329 2 329 13 0 7 -13 53 -29 101 -16 48 -52 157 -79 242
-109 337 -264 818 -279 865 -9 28 -19 59 -24 70 -4 11 -60 182 -124 380 -175
541 -212 657 -263 813 l-46 142 -338 0 c-186 0 -338 -3 -338 -7z"/>
<path d="M127 4162 c-10 -2 -15 -8 -12 -13 4 -5 37 -100 75 -212 38 -111 132
-389 210 -617 78 -228 152 -446 165 -485 109 -324 267 -780 271 -784 3 -4 138
-6 299 -7 l293 -1 -8 21 c-5 12 -162 485 -350 1051 -188 567 -346 1034 -351
1039 -7 8 -553 15 -592 8z"/>
<path d="M6170 2420 l0 -370 359 0 359 0 0 370 -1 370 -358 0 -359 0 0 -370z"/>
</g>
</svg>
