<svg width="200" height="32" xmlns="http://www.w3.org/2000/svg">
 <!-- Generator: Sketch 43.1 (39012) - http://www.bohemiancoding.com/sketch -->
 <title>LOGO FULL</title>
 <desc>Created with Sketch.</desc>

 <g>
  <title>background</title>
  <rect fill="none" id="canvas_background" height="34" width="202" y="-1" x="-1"/>
 </g>
 <g>
  <title>Layer 1</title>
  <g fill-rule="evenodd" fill="none" id="Page-1">
   <g id="LOGO-FULL">
    <g id="Group">
     <path fill="#4A4A4A" id="wonderful." d="m11.951222,9.60976l4.53658,0l3.87805,13.2439l4.28049,-13.31707l3.76829,0l4.31708,13.31707l3.95122,-13.2439l4.42683,0l-6.32927,19.46341l-3.95122,0l-4.31708,-13.20732l-4.35365,13.20732l-3.95122,0l-6.2561,-19.46341zm40.41463,15.91463c0.90245,0 1.71341,-0.16463 2.43293,-0.4939c0.71952,-0.32927 1.33536,-0.77439 1.84756,-1.33537c0.5122,-0.56098 0.90244,-1.21341 1.17073,-1.95732c0.2683,-0.7439 0.40244,-1.53048 0.40244,-2.35975l0,-0.07317c0,-0.85366 -0.14634,-1.65853 -0.43902,-2.41464c-0.29269,-0.7561 -0.70122,-1.41463 -1.22561,-1.97561c-0.5244,-0.56097 -1.14634,-1.00609 -1.86586,-1.33536c-0.71951,-0.32927 -1.51828,-0.4939 -2.39634,-0.4939c-0.87805,0 -1.67682,0.16463 -2.39634,0.4939c-0.71951,0.32927 -1.33536,0.76829 -1.84756,1.31707c-0.5122,0.54878 -0.90244,1.20122 -1.17073,1.95732c-0.2683,0.7561 -0.40244,1.54877 -0.40244,2.37805l0,0.07317c0,0.85366 0.14634,1.65243 0.43902,2.39634c0.29269,0.74391 0.70122,1.40244 1.22561,1.97561c0.5244,0.57317 1.14634,1.02439 1.86586,1.35366c0.71951,0.32927 1.50609,0.4939 2.35975,0.4939zm-0.07317,3.84146c-1.46342,0 -2.82316,-0.26219 -4.07927,-0.78658c-1.2561,-0.52439 -2.34145,-1.2378 -3.25609,-2.14025c-0.91464,-0.90244 -1.62805,-1.9634 -2.14025,-3.18292c-0.51219,-1.21952 -0.76829,-2.51219 -0.76829,-3.87805l0,-0.07317c0,-1.39025 0.26219,-2.69512 0.78659,-3.91464c0.52439,-1.21951 1.24389,-2.28658 2.15853,-3.20122c0.91464,-0.91463 2,-1.64024 3.2561,-2.17682c1.2561,-0.53659 2.62804,-0.80488 4.11585,-0.80488c1.48782,0 2.85975,0.26219 4.11586,0.78658c1.2561,0.5244 2.34146,1.2439 3.25609,2.15854c0.91464,0.91464 1.62805,1.9756 2.14025,3.18293c0.5122,1.20732 0.76829,2.50609 0.76829,3.89634l0,0.07317c0,1.36586 -0.26219,2.65853 -0.78658,3.87805c-0.5244,1.21952 -1.2439,2.28658 -2.15854,3.20122c-0.91464,0.91464 -2.00609,1.64024 -3.27439,2.17683c-1.2683,0.53658 -2.64634,0.80487 -4.13415,0.80487zm13.87805,-19.75609l4.42683,0l0,3c0.31708,-0.46342 0.66463,-0.89634 1.04268,-1.29878c0.37805,-0.40245 0.81707,-0.7622 1.31708,-1.07927c0.5,-0.31708 1.04877,-0.56707 1.64634,-0.75c0.59756,-0.18293 1.27438,-0.27439 2.03049,-0.27439c2.19513,0 3.89023,0.67072 5.08536,2.01219c1.19513,1.34147 1.79268,3.14633 1.79268,5.41464l0,12.29268l-4.42682,0l0,-10.97561c0,-1.5122 -0.35976,-2.67683 -1.07927,-3.4939c-0.71952,-0.81708 -1.7378,-1.22561 -3.05488,-1.22561c-1.29269,0 -2.34146,0.42072 -3.14634,1.26219c-0.80488,0.84147 -1.20732,2.01829 -1.20732,3.53049l0,10.90244l-4.42683,0l0,-19.31707zm31.03659,15.87804c0.73171,0 1.43902,-0.14634 2.12195,-0.43902c0.68293,-0.29268 1.28048,-0.71341 1.79268,-1.26219c0.5122,-0.54879 0.92073,-1.20122 1.22561,-1.95732c0.30488,-0.7561 0.45732,-1.59756 0.45732,-2.52439l0,-0.07317c0,-0.92684 -0.15244,-1.77439 -0.45732,-2.54269c-0.30488,-0.76829 -0.71341,-1.42072 -1.22561,-1.95731c-0.5122,-0.53659 -1.10975,-0.95122 -1.79268,-1.24391c-0.68293,-0.29268 -1.39024,-0.43902 -2.12195,-0.43902c-0.7561,0 -1.46951,0.14024 -2.14025,0.42073c-0.67073,0.28049 -1.26219,0.68902 -1.77439,1.22561c-0.5122,0.53659 -0.91463,1.18902 -1.20731,1.95732c-0.29269,0.7683 -0.43903,1.62804 -0.43903,2.57927l0,0.07317c0,0.92683 0.14634,1.77438 0.43903,2.54268c0.29268,0.7683 0.69511,1.42073 1.20731,1.95732c0.5122,0.53659 1.10366,0.95122 1.77439,1.2439c0.67074,0.29268 1.38415,0.43902 2.14025,0.43902zm-1.06098,3.84147c-1.14635,0 -2.25609,-0.21951 -3.32927,-0.65854c-1.07317,-0.43902 -2.02438,-1.08536 -2.85366,-1.93902c-0.82927,-0.85367 -1.49999,-1.90244 -2.01219,-3.14634c-0.5122,-1.24391 -0.76829,-2.67073 -0.76829,-4.28049l0,-0.07317c0,-1.60977 0.24999,-3.03658 0.75,-4.28049c0.5,-1.24391 1.16463,-2.29268 1.9939,-3.14634c0.82927,-0.85366 1.78658,-1.5 2.87195,-1.93903c1.08537,-0.43902 2.20121,-0.65853 3.34756,-0.65853c1.58537,0 2.90243,0.34146 3.95122,1.02439c1.04879,0.68293 1.92683,1.4756 2.63415,2.37805l0,-10.39025l4.42683,0l0,26.70732l-4.42683,0l0,-3.21951c-0.70732,1 -1.59146,1.85365 -2.65244,2.56097c-1.06098,0.70732 -2.37195,1.06098 -3.93293,1.06098zm29.09756,-11.41464c-0.07317,-0.70732 -0.2317,-1.37194 -0.47561,-1.9939c-0.2439,-0.62195 -0.57317,-1.15853 -0.9878,-1.60975c-0.41464,-0.45123 -0.90854,-0.81098 -1.48171,-1.07927c-0.57317,-0.2683 -1.22561,-0.40244 -1.95732,-0.40244c-1.36586,0 -2.4939,0.46951 -3.38414,1.40853c-0.89025,0.93903 -1.43293,2.16463 -1.62805,3.67683l9.91463,0zm-4.39024,11.45122c-1.39025,0 -2.68902,-0.2439 -3.89634,-0.7317c-1.20733,-0.48781 -2.2561,-1.17073 -3.14634,-2.04878c-0.89025,-0.87806 -1.59147,-1.93292 -2.10366,-3.16464c-0.5122,-1.23171 -0.7683,-2.59145 -0.7683,-4.07927l0,-0.07317c0,-1.39025 0.23171,-2.69511 0.69513,-3.91463c0.46341,-1.21952 1.11585,-2.28658 1.95731,-3.20122c0.84147,-0.91464 1.83536,-1.63414 2.98171,-2.15854c1.14635,-0.52439 2.41463,-0.78658 3.80488,-0.78658c1.53659,0 2.88414,0.28048 4.04268,0.84146c1.15854,0.56098 2.12195,1.31707 2.89025,2.26829c0.76829,0.95123 1.34755,2.05487 1.7378,3.31098c0.39025,1.2561 0.58537,2.57926 0.58537,3.96951c0,0.19512 -0.0061,0.39634 -0.0183,0.60366c-0.01219,0.20732 -0.03048,0.42073 -0.05488,0.64024l-14.19512,0c0.24391,1.58538 0.87195,2.79878 1.88415,3.64025c1.0122,0.84146 2.2378,1.26219 3.67683,1.26219c1.09757,0 2.04877,-0.19512 2.85366,-0.58536c0.80488,-0.39025 1.59755,-0.96341 2.37805,-1.71952l2.59756,2.30488c-0.92684,1.09757 -2.03048,1.97561 -3.31098,2.63415c-1.28049,0.65854 -2.81097,0.9878 -4.59146,0.9878zm12.56097,-19.75609l4.42683,0l0,4.35365c0.60976,-1.46342 1.47561,-2.63414 2.59756,-3.51219c1.12196,-0.87805 2.53658,-1.28049 4.24391,-1.20732l0,4.68293l-0.2561,0c-0.97562,0 -1.86585,0.15853 -2.67073,0.47561c-0.80489,0.31707 -1.5,0.79268 -2.08537,1.42683c-0.58537,0.63415 -1.03658,1.43292 -1.35366,2.39634c-0.31707,0.96342 -0.47561,2.07926 -0.47561,3.34756l0,7.35366l-4.42683,0l0,-19.31707zm17.07317,3.80487l-2.45121,0l0,-3.69512l2.45121,0l0,-1.39024c0,-2.14635 0.52439,-3.7439 1.57317,-4.79268c1.0244,-1.0244 2.47561,-1.53659 4.35366,-1.53659c0.78049,0 1.45122,0.04878 2.0122,0.14634c0.56098,0.09756 1.08536,0.21951 1.57317,0.36586l0,3.7317c-0.43903,-0.14634 -0.85976,-0.26219 -1.2622,-0.34756c-0.40244,-0.08536 -0.84755,-0.12805 -1.33536,-0.12805c-1.70733,0 -2.56098,0.9756 -2.56098,2.92683l0,1.06098l5.12195,0l0,3.65853l-5.04878,0l0,15.5122l-4.42683,0l0,-15.5122zm19.7683,15.91464c-2.19514,0 -3.89024,-0.67073 -5.08537,-2.0122c-1.19513,-1.34147 -1.79268,-3.14633 -1.79268,-5.41463l0,-12.29268l4.42683,0l0,10.97561c0,1.5122 0.35975,2.67682 1.07927,3.4939c0.71951,0.81708 1.73779,1.22561 3.05487,1.22561c1.29269,0 2.34146,-0.42073 3.14635,-1.2622c0.80488,-0.84146 1.20731,-2.01828 1.20731,-3.53048l0,-10.90244l4.42683,0l0,19.31707l-4.42683,0l0,-3c-0.63415,0.92683 -1.42682,1.72561 -2.37805,2.39634c-0.95122,0.67074 -2.17072,1.0061 -3.65853,1.0061zm15.59756,-27.10976l4.42683,0l0,26.70732l-4.42683,0l0,-26.70732zm9.23171,21.69512l4.86585,0l0,5.0122l-4.86585,0l0,-5.0122z"/>
     <polygon points="5.414636135101318,11.365852355957031 10.021015167236328,11.365852355957031 15.778987884521484,29.107032775878906 11.279176712036133,29.107032775878906 " fill="#0AB5A1" id="Path"/>
     <polygon points="0.0487823486328125,14.780487060546875 4.167356491088867,14.780487060546875 8.94972038269043,29.107032775878906 4.937712669372559,29.107032775878906 " fill="#0AB5A1" id="Path"/>
    </g>
   </g>
  </g>
 </g>
</svg>